NotoSansDisplay-CondensedBoldItalic.ufo
<glyph name="florin" format="2">
  <advance width="446"/>
  <unicode hex="0192"/>
  <anchor x="131" y="0" name="bottom"/>
  <anchor x="439" y="765" name="top"/>
  <anchor x="573" y="765" name="topright"/>
  <outline>
    <contour>
      <point x="143" y="-15" type="curve" smooth="yes"/>
      <point x="253" y="-15"/>
      <point x="314" y="55"/>
      <point x="337" y="163" type="curve" smooth="yes"/>
      <point x="392" y="420" type="line"/>
      <point x="472" y="420" type="line"/>
      <point x="500" y="553" type="line"/>
      <point x="420" y="553" type="line"/>
      <point x="428" y="587" type="line"/>
      <point x="433" y="609"/>
      <point x="442" y="630"/>
      <point x="465" y="630" type="curve" smooth="yes"/>
      <point x="476" y="630"/>
      <point x="493" y="625"/>
      <point x="506" y="617" type="curve"/>
      <point x="561" y="737" type="line"/>
      <point x="520" y="758"/>
      <point x="480" y="765"/>
      <point x="442" y="765" type="curve" smooth="yes"/>
      <point x="315" y="765"/>
      <point x="281" y="654"/>
      <point x="266" y="582" type="curve" smooth="yes"/>
      <point x="259" y="548" type="line"/>
      <point x="196" y="503" type="line"/>
      <point x="179" y="420" type="line"/>
      <point x="231" y="420" type="line"/>
      <point x="180" y="172" type="line" smooth="yes"/>
      <point x="174" y="144"/>
      <point x="164" y="120"/>
      <point x="141" y="120" type="curve" smooth="yes"/>
      <point x="119" y="120"/>
      <point x="111" y="135"/>
      <point x="111" y="154" type="curve" smooth="yes"/>
      <point x="111" y="165"/>
      <point x="113" y="180"/>
      <point x="119" y="195" type="curve"/>
      <point x="-7" y="234" type="line"/>
      <point x="-18" y="209"/>
      <point x="-24" y="176"/>
      <point x="-24" y="150" type="curve" smooth="yes"/>
      <point x="-24" y="50"/>
      <point x="34" y="-15"/>
    </contour>
  </outline>
</glyph>
<glyph name="tildedoublecomb" format="2">
  <unicode hex="0360"/>
  <anchor x="309" y="530" name="_top"/>
  <anchor x="346" y="771" name="top"/>
  <outline>
    <contour>
      <point x="6" y="607" type="curve"/>
      <point x="91" y="607" type="line"/>
      <point x="108" y="648"/>
      <point x="133" y="657"/>
      <point x="156" y="657" type="curve" smooth="yes"/>
      <point x="271" y="657"/>
      <point x="365" y="608"/>
      <point x="482" y="608" type="curve" smooth="yes"/>
      <point x="577" y="608"/>
      <point x="653" y="662"/>
      <point x="681" y="771" type="curve"/>
      <point x="596" y="771" type="line"/>
      <point x="585" y="737"/>
      <point x="564" y="722"/>
      <point x="540" y="722" type="curve" smooth="yes"/>
      <point x="416" y="722"/>
      <point x="333" y="771"/>
      <point x="197" y="771" type="curve" smooth="yes"/>
      <point x="111" y="771"/>
      <point x="34" y="717"/>
    </contour>
  </outline>
</glyph>
<glyph name="uni0488" format="2">
  <advance width="871"/>
  <unicode hex="0488"/>
  <outline>
    <contour>
      <point x="559" y="456" type="curve"/>
      <point x="616" y="456" type="line"/>
      <point x="618" y="477"/>
      <point x="637" y="488"/>
      <point x="675" y="488" type="curve" smooth="yes"/>
      <point x="721" y="488"/>
      <point x="732" y="478"/>
      <point x="734" y="456" type="curve"/>
      <point x="790" y="456" type="line"/>
      <point x="785" y="522"/>
      <point x="733" y="557"/>
      <point x="675" y="557" type="curve" smooth="yes"/>
      <point x="615" y="557"/>
      <point x="564" y="517"/>
    </contour>
    <contour>
      <point x="66" y="-20" type="curve"/>
      <point x="123" y="-20" type="line"/>
      <point x="124" y="0"/>
      <point x="146" y="12"/>
      <point x="182" y="12" type="curve" smooth="yes"/>
      <point x="228" y="12"/>
      <point x="240" y="1"/>
      <point x="242" y="-20" type="curve"/>
      <point x="297" y="-20" type="line"/>
      <point x="294" y="42"/>
      <point x="249" y="81"/>
      <point x="182" y="81" type="curve" smooth="yes"/>
      <point x="122" y="81"/>
      <point x="70" y="41"/>
    </contour>
    <contour>
      <point x="307" y="-156" type="curve"/>
      <point x="365" y="-156" type="line"/>
      <point x="365" y="-135"/>
      <point x="384" y="-124"/>
      <point x="422" y="-124" type="curve" smooth="yes"/>
      <point x="469" y="-124"/>
      <point x="480" y="-134"/>
      <point x="482" y="-156" type="curve"/>
      <point x="539" y="-156" type="line"/>
      <point x="534" y="-91"/>
      <point x="481" y="-55"/>
      <point x="423" y="-55" type="curve" smooth="yes"/>
      <point x="363" y="-55"/>
      <point x="311" y="-94"/>
    </contour>
    <contour>
      <point x="7" y="221" type="curve"/>
      <point x="65" y="221" type="line"/>
      <point x="64" y="242"/>
      <point x="85" y="253"/>
      <point x="123" y="253" type="curve" smooth="yes"/>
      <point x="168" y="253"/>
      <point x="180" y="244"/>
      <point x="182" y="221" type="curve"/>
      <point x="237" y="221" type="line"/>
      <point x="236" y="282"/>
      <point x="191" y="322"/>
      <point x="124" y="322" type="curve" smooth="yes"/>
      <point x="64" y="322"/>
      <point x="11" y="282"/>
    </contour>
    <contour>
      <point x="68" y="456" type="curve"/>
      <point x="126" y="456" type="line"/>
      <point x="125" y="477"/>
      <point x="146" y="488"/>
      <point x="184" y="488" type="curve" smooth="yes"/>
      <point x="230" y="488"/>
      <point x="242" y="478"/>
      <point x="244" y="456" type="curve"/>
      <point x="299" y="456" type="line"/>
      <point x="296" y="518"/>
      <point x="251" y="557"/>
      <point x="185" y="557" type="curve" smooth="yes"/>
      <point x="128" y="557"/>
      <point x="72" y="519"/>
    </contour>
    <contour>
      <point x="557" y="-20" type="curve"/>
      <point x="614" y="-20" type="line"/>
      <point x="616" y="0"/>
      <point x="636" y="12"/>
      <point x="673" y="12" type="curve" smooth="yes"/>
      <point x="719" y="12"/>
      <point x="730" y="1"/>
      <point x="732" y="-20" type="curve"/>
      <point x="788" y="-20" type="line"/>
      <point x="783" y="46"/>
      <point x="731" y="81"/>
      <point x="673" y="81" type="curve" smooth="yes"/>
      <point x="613" y="81"/>
      <point x="562" y="41"/>
    </contour>
    <contour>
      <point x="618" y="221" type="curve"/>
      <point x="676" y="221" type="line"/>
      <point x="676" y="242"/>
      <point x="696" y="253"/>
      <point x="735" y="253" type="curve" smooth="yes"/>
      <point x="780" y="253"/>
      <point x="792" y="243"/>
      <point x="794" y="221" type="curve"/>
      <point x="849" y="221" type="line"/>
      <point x="847" y="282"/>
      <point x="803" y="322"/>
      <point x="735" y="322" type="curve" smooth="yes"/>
      <point x="674" y="322"/>
      <point x="621" y="282"/>
    </contour>
    <contour>
      <point x="310" y="595" type="curve"/>
      <point x="368" y="595" type="line"/>
      <point x="369" y="616"/>
      <point x="388" y="627"/>
      <point x="426" y="627" type="curve" smooth="yes"/>
      <point x="472" y="627"/>
      <point x="483" y="617"/>
      <point x="485" y="595" type="curve"/>
      <point x="542" y="595" type="line"/>
      <point x="538" y="659"/>
      <point x="490" y="696"/>
      <point x="426" y="696" type="curve" smooth="yes"/>
      <point x="370" y="696"/>
      <point x="317" y="659"/>
    </contour>
  </outline>
</glyph>
<glyph name="uni1D6F" format="2">
  <advance width="715"/>
  <unicode hex="1D6F"/>
  <anchor x="339" y="0" name="bottom"/>
  <anchor x="457" y="553" name="top"/>
  <anchor x="794" y="553" name="topright"/>
  <outline>
    <contour>
      <point x="648" y="155" type="curve"/>
      <point x="769" y="155"/>
      <point x="859" y="232"/>
      <point x="872" y="365" type="curve"/>
      <point x="784" y="365" type="line"/>
      <point x="779" y="293"/>
      <point x="736" y="262"/>
      <point x="665" y="262" type="curve"/>
      <point x="488" y="262"/>
      <point x="362" y="360"/>
      <point x="158" y="360" type="curve"/>
      <point x="38" y="360"/>
      <point x="-53" y="283"/>
      <point x="-66" y="149" type="curve"/>
      <point x="21" y="149" type="line"/>
      <point x="26" y="221"/>
      <point x="70" y="254"/>
      <point x="140" y="254" type="curve"/>
      <point x="312" y="254"/>
      <point x="450" y="155"/>
    </contour>
    <component base="m" xOffset="40"/>
  </outline>
</glyph>
<glyph name="LL-middleWelsh" format="2">
  <advance width="669"/>
  <unicode hex="1EFA"/>
  <anchor x="422" y="0" name="bottom"/>
  <anchor x="498" y="714" name="top"/>
  <anchor x="430" y="357" name="center"/>
  <anchor x="675" y="714" name="topright"/>
  <outline>
    <contour>
      <point x="-4" y="0" type="line"/>
      <point x="163" y="0" type="line"/>
      <point x="313" y="714" type="line"/>
      <point x="146" y="714" type="line"/>
    </contour>
    <component base="L" xOffset="274"/>
  </outline>
</glyph>
<glyph name="uni1FED" format="2">
  <advance width="422"/>
  <unicode hex="1FED"/>
  <anchor x="266" y="530" name="_top"/>
  <outline>
    <contour>
      <point x="278" y="611" type="curve"/>
      <point x="356" y="611" type="line"/>
      <point x="359" y="625" type="line"/>
      <point x="357" y="651"/>
      <point x="358" y="741"/>
      <point x="358" y="776" type="curve"/>
      <point x="229" y="776" type="line"/>
      <point x="227" y="766" type="line"/>
      <point x="236" y="725"/>
      <point x="262" y="648"/>
    </contour>
    <contour>
      <point x="128" y="600" type="curve" smooth="yes"/>
      <point x="169" y="600"/>
      <point x="208" y="633"/>
      <point x="208" y="692" type="curve" smooth="yes"/>
      <point x="208" y="727"/>
      <point x="188" y="747"/>
      <point x="155" y="747" type="curve" smooth="yes"/>
      <point x="99" y="747"/>
      <point x="70" y="706"/>
      <point x="70" y="656" type="curve" smooth="yes"/>
      <point x="70" y="619"/>
      <point x="90" y="600"/>
    </contour>
    <contour>
      <point x="451" y="600" type="curve" smooth="yes"/>
      <point x="493" y="600"/>
      <point x="531" y="633"/>
      <point x="531" y="692" type="curve" smooth="yes"/>
      <point x="531" y="727"/>
      <point x="511" y="747"/>
      <point x="478" y="747" type="curve" smooth="yes"/>
      <point x="423" y="747"/>
      <point x="394" y="706"/>
      <point x="394" y="656" type="curve" smooth="yes"/>
      <point x="394" y="619"/>
      <point x="414" y="600"/>
    </contour>
  </outline>
</glyph>
<glyph name="uni1FEF" format="2">
  <advance width="423"/>
  <unicode hex="1FEF"/>
  <anchor x="232" y="530" name="_top"/>
  <anchor x="271" y="782" name="top"/>
  <outline>
    <contour>
      <point x="249" y="617" type="curve"/>
      <point x="337" y="617" type="line"/>
      <point x="340" y="631" type="line"/>
      <point x="338" y="657"/>
      <point x="339" y="747"/>
      <point x="339" y="782" type="curve"/>
      <point x="200" y="782" type="line"/>
      <point x="198" y="772" type="line"/>
      <point x="207" y="731"/>
      <point x="233" y="654"/>
    </contour>
  </outline>
</glyph>
<glyph name="uni20A9" format="2">
  <advance width="732"/>
  <unicode hex="20A9"/>
  <outline>
    <contour>
      <point x="64" y="0" type="line"/>
      <point x="251" y="0" type="line"/>
      <point x="336" y="248" type="line"/>
      <point x="403" y="248" type="line"/>
      <point x="395" y="0" type="line"/>
      <point x="578" y="0" type="line"/>
      <point x="665" y="248" type="line"/>
      <point x="732" y="248" type="line"/>
      <point x="750" y="333" type="line"/>
      <point x="695" y="333" type="line"/>
      <point x="712" y="385" type="line"/>
      <point x="760" y="385" type="line"/>
      <point x="778" y="470" type="line"/>
      <point x="742" y="470" type="line"/>
      <point x="827" y="714" type="line"/>
      <point x="659" y="714" type="line"/>
      <point x="585" y="470" type="line"/>
      <point x="519" y="470" type="line"/>
      <point x="527" y="714" type="line"/>
      <point x="391" y="714" type="line"/>
      <point x="304" y="470" type="line"/>
      <point x="233" y="470" type="line"/>
      <point x="245" y="714" type="line"/>
      <point x="94" y="714" type="line"/>
      <point x="84" y="470" type="line"/>
      <point x="49" y="470" type="line"/>
      <point x="31" y="385" type="line"/>
      <point x="81" y="385" type="line"/>
      <point x="78" y="333" type="line"/>
      <point x="21" y="333" type="line"/>
      <point x="3" y="248" type="line"/>
      <point x="74" y="248" type="line"/>
    </contour>
    <contour>
      <point x="210" y="195" type="line"/>
      <point x="218" y="248" type="line"/>
      <point x="226" y="248" type="line"/>
    </contour>
    <contour>
      <point x="226" y="333" type="line"/>
      <point x="229" y="385" type="line"/>
      <point x="273" y="385" type="line"/>
      <point x="254" y="333" type="line"/>
    </contour>
    <contour>
      <point x="507" y="192" type="line"/>
      <point x="511" y="248" type="line"/>
      <point x="519" y="248" type="line"/>
    </contour>
    <contour>
      <point x="365" y="333" type="line"/>
      <point x="382" y="385" type="line"/>
      <point x="406" y="385" type="line"/>
      <point x="405" y="333" type="line"/>
    </contour>
    <contour>
      <point x="515" y="333" type="line"/>
      <point x="517" y="385" type="line"/>
      <point x="558" y="385" type="line"/>
      <point x="543" y="333" type="line"/>
    </contour>
    <contour>
      <point x="404" y="470" type="line"/>
      <point x="416" y="521" type="line"/>
      <point x="411" y="470" type="line"/>
    </contour>
  </outline>
</glyph>
<glyph name="enotch" format="2">
  <advance width="608"/>
  <unicode hex="2C78"/>
  <anchor x="175" y="0" name="bottom"/>
  <anchor x="294" y="562" name="top"/>
  <anchor x="494" y="553" name="topright"/>
  <outline>
    <contour>
      <point x="426" y="-11" type="curve" smooth="yes"/>
      <point x="521" y="-11"/>
      <point x="583" y="61"/>
      <point x="583" y="161" type="curve" smooth="yes"/>
      <point x="583" y="180"/>
      <point x="582" y="191"/>
      <point x="580" y="200" type="curve"/>
      <point x="463" y="200" type="line"/>
      <point x="466" y="192"/>
      <point x="467" y="184"/>
      <point x="467" y="170" type="curve" smooth="yes"/>
      <point x="467" y="138"/>
      <point x="444" y="119"/>
      <point x="418" y="119" type="curve" smooth="yes"/>
      <point x="394" y="119"/>
      <point x="376" y="134"/>
      <point x="368" y="159" type="curve"/>
      <point x="319" y="27" type="line"/>
      <point x="339" y="9"/>
      <point x="368" y="-11"/>
    </contour>
    <component base="e"/>
  </outline>
</glyph>
<glyph name="uniA655" format="2">
  <advance width="699"/>
  <unicode hex="A655"/>
  <anchor x="177" y="0" name="bottom"/>
  <anchor x="236" y="277" name="center"/>
  <anchor x="295" y="553" name="top"/>
  <anchor x="511" y="553" name="topright"/>
  <outline>
    <contour>
      <point x="432" y="351" type="line"/>
      <point x="403" y="215" type="line"/>
      <point x="485" y="215" type="line"/>
      <point x="439" y="0" type="line"/>
      <point x="599" y="0" type="line"/>
      <point x="716" y="553" type="line"/>
      <point x="556" y="553" type="line"/>
      <point x="513" y="351" type="line"/>
    </contour>
    <component base="o"/>
  </outline>
</glyph>
<glyph name="uniA667" format="2">
  <advance width="758"/>
  <unicode hex="A667"/>
  <anchor x="263" y="0" name="bottom"/>
  <anchor x="380" y="553" name="top"/>
  <outline>
    <contour>
      <point x="578" y="418" type="line"/>
      <point x="775" y="418" type="line"/>
      <point x="804" y="553" type="line"/>
      <point x="497" y="553" type="line"/>
    </contour>
    <component base="afii10078"/>
  </outline>
</glyph>
<glyph name="uniA74A" format="2">
  <advance width="565"/>
  <unicode hex="A74A"/>
  <anchor x="228" y="0" name="bottom"/>
  <anchor x="311" y="357" name="center"/>
  <anchor x="379" y="714" name="top"/>
  <anchor x="642" y="714" name="topright"/>
  <outline>
    <contour>
      <point x="5" y="295" type="line"/>
      <point x="580" y="295" type="line"/>
      <point x="609" y="430" type="line"/>
      <point x="34" y="430" type="line"/>
    </contour>
    <component base="O"/>
  </outline>
</glyph>
<glyph name="uniA75E" format="2">
  <advance width="512"/>
  <unicode hex="A75E"/>
  <anchor x="192" y="0" name="bottom"/>
  <anchor x="343" y="714" name="top"/>
  <anchor x="589" y="714" name="topright"/>
  <outline>
    <contour>
      <point x="7" y="0" type="line"/>
      <point x="81" y="0" type="line"/>
      <point x="382" y="714" type="line"/>
      <point x="307" y="714" type="line"/>
    </contour>
    <component base="V"/>
  </outline>
</glyph>
<glyph name="uniA768" format="2">
  <advance width="605"/>
  <unicode hex="A768"/>
  <outline>
    <contour>
      <point x="-86" y="-240" type="line"/>
      <point x="245" y="-240" type="line"/>
      <point x="264" y="-154" type="line"/>
      <point x="189" y="-114" type="line"/>
      <point x="210" y="-14" type="line"/>
      <point x="699" y="714" type="line"/>
      <point x="520" y="714" type="line"/>
      <point x="338" y="420" type="line" smooth="yes"/>
      <point x="311" y="378"/>
      <point x="294" y="339"/>
      <point x="278" y="298" type="curve"/>
      <point x="276" y="298" type="line"/>
      <point x="287" y="339"/>
      <point x="294" y="379"/>
      <point x="303" y="420" type="curve" smooth="yes"/>
      <point x="337" y="588" type="line"/>
      <point x="428" y="628" type="line"/>
      <point x="446" y="714" type="line"/>
      <point x="115" y="714" type="line"/>
      <point x="97" y="628" type="line"/>
      <point x="169" y="588" type="line"/>
      <point x="22" y="-114" type="line"/>
      <point x="-68" y="-154" type="line"/>
    </contour>
  </outline>
</glyph>
<glyph name="uniA773" format="2">
  <advance width="934"/>
  <unicode hex="A773"/>
  <anchor x="299" y="0" name="bottom"/>
  <anchor x="417" y="553" name="top"/>
  <anchor x="754" y="553" name="topright"/>
  <outline>
    <contour>
      <point x="570" y="-157" type="line"/>
      <point x="679" y="-157" type="line"/>
      <point x="901" y="298" type="line"/>
      <point x="793" y="298" type="line"/>
    </contour>
    <contour>
      <point x="612" y="0" type="line"/>
      <point x="873" y="0" type="line"/>
      <point x="901" y="135" type="line"/>
      <point x="640" y="135" type="line"/>
    </contour>
    <component base="m"/>
  </outline>
</glyph>
<glyph name="uniA781" format="2">
  <advance width="271"/>
  <unicode hex="A781"/>
  <outline>
    <contour>
      <point x="-56" y="-240" type="line"/>
      <point x="112" y="-240" type="line"/>
      <point x="280" y="553" type="line"/>
      <point x="113" y="553" type="line"/>
    </contour>
  </outline>
</glyph>
<glyph name="uniA792" format="2">
  <advance width="465"/>
  <unicode hex="A792"/>
  <anchor x="212" y="0" name="bottom"/>
  <anchor x="358" y="714" name="top"/>
  <anchor x="541" y="714" name="topright"/>
  <outline>
    <contour>
      <point x="8" y="297" type="line"/>
      <point x="385" y="297" type="line"/>
      <point x="411" y="422" type="line"/>
      <point x="34" y="422" type="line"/>
    </contour>
    <component base="C"/>
  </outline>
</glyph>
<glyph name="uniA7FB" format="2">
  <advance width="401"/>
  <unicode hex="A7FB"/>
  <outline>
    <contour>
      <point x="126" y="0" type="line"/>
      <point x="293" y="0" type="line"/>
      <point x="445" y="714" type="line"/>
      <point x="126" y="714" type="line"/>
      <point x="95" y="570" type="line"/>
      <point x="247" y="570" type="line"/>
      <point x="216" y="417" type="line"/>
      <point x="76" y="417" type="line"/>
      <point x="44" y="273" type="line"/>
      <point x="184" y="273" type="line"/>
    </contour>
  </outline>
</glyph>
<glyph name="uniAB60" format="2">
  <advance width="697"/>
  <unicode hex="AB60"/>
  <outline>
    <contour>
      <point x="417" y="-10" type="curve" smooth="yes"/>
      <point x="556" y="-10"/>
      <point x="657" y="56"/>
      <point x="657" y="208" type="curve" smooth="yes"/>
      <point x="657" y="304"/>
      <point x="605" y="354"/>
      <point x="495" y="354" type="curve" smooth="yes"/>
      <point x="483" y="354"/>
      <point x="470" y="353"/>
      <point x="464" y="351" type="curve"/>
      <point x="506" y="553" type="line"/>
      <point x="347" y="553" type="line"/>
      <point x="271" y="199" type="line" smooth="yes"/>
      <point x="264" y="162"/>
      <point x="262" y="143"/>
      <point x="262" y="128" type="curve" smooth="yes"/>
      <point x="262" y="24"/>
      <point x="331" y="-10"/>
    </contour>
    <contour>
      <point x="-13" y="0" type="line"/>
      <point x="147" y="0" type="line"/>
      <point x="264" y="553" type="line"/>
      <point x="105" y="553" type="line"/>
    </contour>
    <contour>
      <point x="442" y="110" type="curve" smooth="yes"/>
      <point x="422" y="110"/>
      <point x="421" y="128"/>
      <point x="421" y="139" type="curve" smooth="yes"/>
      <point x="421" y="146"/>
      <point x="427" y="178"/>
      <point x="437" y="230" type="curve"/>
      <point x="445" y="232"/>
      <point x="454" y="234"/>
      <point x="462" y="234" type="curve" smooth="yes"/>
      <point x="482" y="234"/>
      <point x="492" y="221"/>
      <point x="492" y="194" type="curve" smooth="yes"/>
      <point x="492" y="148"/>
      <point x="470" y="110"/>
    </contour>
  </outline>
</glyph>
<glyph name="uniFE23" format="2">
  <unicode hex="FE23"/>
  <outline>
    <contour>
      <point x="259" y="608" type="curve" smooth="yes"/>
      <point x="330" y="608"/>
      <point x="395" y="662"/>
      <point x="401" y="771" type="curve"/>
      <point x="320" y="771" type="line"/>
      <point x="311" y="734"/>
      <point x="283" y="722"/>
      <point x="247" y="722" type="curve" smooth="yes"/>
      <point x="201" y="722"/>
      <point x="145" y="733"/>
      <point x="79" y="748" type="curve"/>
      <point x="79" y="631" type="line"/>
      <point x="134" y="619"/>
      <point x="195" y="608"/>
    </contour>
  </outline>
</glyph>
<glyph name="acutecomb.sc" format="2">
  <advance width="388"/>
  <anchor x="331" y="589" name="_top"/>
  <anchor x="370" y="772" name="top"/>
  <outline>
    <contour>
      <point x="229" y="640" type="line"/>
      <point x="345" y="640" type="line"/>
      <point x="365" y="658"/>
      <point x="456" y="742"/>
      <point x="481" y="765" type="curve"/>
      <point x="482" y="772" type="line"/>
      <point x="316" y="772" type="line"/>
      <point x="287" y="727"/>
      <point x="259" y="688"/>
      <point x="232" y="650" type="curve"/>
    </contour>
  </outline>
</glyph>
<glyph name="uni0268dotless" format="2">
  <advance width="250"/>
  <anchor x="68" y="0" name="bottom"/>
  <anchor x="185" y="553" name="top"/>
  <outline>
    <contour>
      <point x="-9" y="217" type="line"/>
      <point x="238" y="217" type="line"/>
      <point x="265" y="343" type="line"/>
      <point x="19" y="343" type="line"/>
    </contour>
    <component base="idotless"/>
  </outline>
</glyph>
